<svg xmlns="http://www.w3.org/2000/svg" xmlns:xlink="http://www.w3.org/1999/xlink" contentStyleType="text/css" data-diagram-type="STATE" height="499px" preserveAspectRatio="none" style="width:705px;height:499px;background:#FFFFFF;" version="1.1" viewBox="0 0 705 499" width="705px" zoomAndPan="magnify"><?plantuml 1.2026.6?><defs/><g><g class="title" data-source-line="1"><text fill="#000000" font-family="sans-serif" font-size="14" font-weight="700" lengthAdjust="spacing" textLength="372.2305" x="162.9922" y="22.9951">&#272;&#7889;i t&#432;&#7907;ng JOB &#8212; V&#242;ng &#273;&#7901;i tr&#7841;ng th&#225;i ho&#7841;t &#273;&#7897;ng</text></g><g class="entity" data-qualified-name="ACTIVE" data-source-line="10" id="ent0001"><rect fill="#F5F8FF" height="52.5938" rx="12.5" ry="12.5" style="stroke:#1F4E79;stroke-width:0.5;" width="163.4658" x="197.65" y="155.2969"/><line style="stroke:#1F4E79;stroke-width:0.5;" x1="197.65" x2="361.1158" y1="197.8906" y2="197.8906"/><text fill="#0F172A" font-family="sans-serif" font-size="14" lengthAdjust="spacing" textLength="143.4658" x="207.65" y="173.292">ST-JOB-01 &#8212; ACTIVE</text><text fill="#0F172A" font-family="sans-serif" font-size="14" lengthAdjust="spacing" textLength="72.8232" x="207.65" y="189.5889">Ho&#7841;t &#273;&#7897;ng</text></g><g class="entity" data-qualified-name="INACTIVE" data-source-line="11" id="ent0002"><rect fill="#F5F8FF" height="52.5938" rx="12.5" ry="12.5" style="stroke:#1F4E79;stroke-width:0.5;" width="178.0674" x="151.35" y="314.8869"/><line style="stroke:#1F4E79;stroke-width:0.5;" x1="151.35" x2="329.4174" y1="357.4806" y2="357.4806"/><text fill="#0F172A" font-family="sans-serif" font-size="14" lengthAdjust="spacing" textLength="158.0674" x="161.35" y="332.882">ST-JOB-02 &#8212; INACTIVE</text><text fill="#0F172A" font-family="sans-serif" font-size="14" lengthAdjust="spacing" textLength="121.6113" x="161.35" y="349.1789">Ng&#7915;ng ho&#7841;t &#273;&#7897;ng</text></g><g class="start_entity" data-qualified-name=".start." data-source-line="13" id="ent0003"><ellipse cx="279.38" cy="53.2969" fill="#222222" rx="10" ry="10" style="stroke:#222222;stroke-width:1;"/></g><g class="end_entity" data-qualified-name=".end." data-source-line="19" id="ent0007"><ellipse cx="475.38" cy="464.6169" fill="none" rx="11" ry="11" style="stroke:#222222;stroke-width:1;"/><ellipse cx="475.38" cy="464.6169" fill="#222222" rx="6" ry="6" style="stroke:#222222;stroke-width:1;"/></g><g class="entity" data-qualified-name="GMN10" data-source-line="24" id="ent0011"><path d="M6,444.4769 L6,484.7425 A0,0 0 0 0 6,484.7425 L416.7651,484.7425 A0,0 0 0 0 416.7651,484.7425 L416.7651,454.4769 L406.7651,444.4769 L220,444.4769 L234.23,367.9369 L212,444.4769 L6,444.4769 A0,0 0 0 0 6,444.4769" fill="#FEFFDD" style="stroke:#181818;stroke-width:0.5;"/><path d="M406.7651,444.4769 L406.7651,454.4769 L416.7651,454.4769 L406.7651,444.4769" fill="#FEFFDD" style="stroke:#181818;stroke-width:0.5;"/><text fill="#000000" font-family="sans-serif" font-size="13" lengthAdjust="spacing" textLength="389.7651" x="12" y="461.5438">Job &#7903; tr&#7841;ng th&#225;i Ng&#7915;ng ho&#7841;t &#273;&#7897;ng v&#7851;n c&#243; th&#7875; &#273;&#432;&#7907;c k&#237;ch ho&#7841;t</text><text fill="#000000" font-family="sans-serif" font-size="13" lengthAdjust="spacing" textLength="371.5537" x="12" y="476.6766">ch&#7841;y th&#7911; c&#244;ng; vi&#7879;c v&#244; hi&#7879;u h&#243;a ch&#7881; g&#7905; l&#7883;ch ch&#7841;y t&#7921; &#273;&#7897;ng.</text></g><!--link *start* to ACTIVE--><g class="link" data-entity-1="ent0003" data-entity-2="ent0001" data-link-type="dependency" data-source-line="13" id="lnk4"><path d="M279.38,63.7869 C279.38,82.9469 279.38,121.8169 279.38,149.9969" fill="none" id="*start*-to-ACTIVE" style="stroke:#1F4E79;stroke-width:1;"/><polygon fill="#1F4E79" points="279.38,154.9969,283.38,145.9969,279.38,149.9969,275.38,145.9969,279.38,154.9969" style="stroke:#1F4E79;stroke-width:1;stroke-linejoin:miter;stroke-miterlimit:10;"/><text fill="#000000" font-family="sans-serif" font-size="13" lengthAdjust="spacing" textLength="109.3828" x="292.9293" y="106.3638">Thi&#7871;t l&#7853;p Job m&#7899;i</text><text fill="#000000" font-family="sans-serif" font-size="13" lengthAdjust="spacing" textLength="134.4814" x="280.38" y="121.4966">(FEAT-HTVH-036-05)</text></g><!--link ACTIVE to INACTIVE--><g class="link" data-entity-1="ent0001" data-entity-2="ent0002" data-link-type="dependency" data-source-line="15" id="lnk5"><path d="M197.38,190.1169 C134.02,197.8169 53.79,212.3769 33.38,237.8869 C20.33,254.1969 20.66,268.3169 33.38,284.8869 C48.19,304.1769 96.9539,317.2745 145.9339,326.3645" fill="none" id="ACTIVE-to-INACTIVE" style="stroke:#1F4E79;stroke-width:1;"/><polygon fill="#1F4E79" points="150.85,327.2769,142.731,321.7018,145.9339,326.3645,141.2712,329.5675,150.85,327.2769" style="stroke:#1F4E79;stroke-width:1;stroke-linejoin:miter;stroke-miterlimit:10;"/><text fill="#000000" font-family="sans-serif" font-size="13" lengthAdjust="spacing" textLength="201.8999" x="34.38" y="250.9538">Menu thao t&#225;c &gt; "V&#244; hi&#7879;u h&#243;a"</text><text fill="#000000" font-family="sans-serif" font-size="13" lengthAdjust="spacing" textLength="134.4814" x="68.0892" y="266.0866">(FEAT-HTVH-036-05)</text><text fill="#000000" font-family="sans-serif" font-size="13" lengthAdjust="spacing" textLength="132.4248" x="69.1175" y="281.2194">g&#7905; l&#7883;ch ch&#7841;y t&#7921; &#273;&#7897;ng</text></g><!--link INACTIVE to ACTIVE--><g class="link" data-entity-1="ent0002" data-entity-2="ent0001" data-link-type="dependency" data-source-line="16" id="lnk6"><path d="M246.73,314.5269 C253.98,285.2269 264.5794,242.4206 271.8294,213.1106" fill="none" id="INACTIVE-to-ACTIVE" style="stroke:#1F4E79;stroke-width:1;"/><polygon fill="#1F4E79" points="273.03,208.2569,266.986,216.0331,271.8294,213.1106,274.7519,217.954,273.03,208.2569" style="stroke:#1F4E79;stroke-width:1;stroke-linejoin:miter;stroke-miterlimit:10;"/><text fill="#000000" font-family="sans-serif" font-size="13" lengthAdjust="spacing" textLength="185.4531" x="266.65" y="250.9538">Menu thao t&#225;c &gt; "K&#237;ch ho&#7841;t"</text><text fill="#000000" font-family="sans-serif" font-size="13" lengthAdjust="spacing" textLength="134.4814" x="292.1358" y="266.0866">(FEAT-HTVH-036-05)</text><text fill="#000000" font-family="sans-serif" font-size="13" lengthAdjust="spacing" textLength="133.3071" x="292.723" y="281.2194">&#273;&#259;ng k&#253; l&#7841;i l&#7883;ch ch&#7841;y</text></g><!--link ACTIVE to *end*--><g class="link" data-entity-1="ent0001" data-entity-2="ent0007" data-link-type="dependency" data-source-line="19" id="lnk8"><path d="M361.33,187.3169 C397.32,193.8669 436.7,208.0169 460.38,237.8869 C513.08,304.3669 488.8338,414.5299 479.5638,448.8499" fill="none" id="ACTIVE-to-*end*" style="stroke:#1F4E79;stroke-width:1;"/><polygon fill="#1F4E79" points="478.26,453.6769,484.4685,446.0313,479.5638,448.8499,476.7452,443.9452,478.26,453.6769" style="stroke:#1F4E79;stroke-width:1;stroke-linejoin:miter;stroke-miterlimit:10;"/><text fill="#000000" font-family="sans-serif" font-size="13" lengthAdjust="spacing" textLength="195.5649" x="493.65" y="345.7538">X&#243;a (ch&#7881; vai tr&#242; c&#243; quy&#7873;n x&#243;a)</text></g><!--link INACTIVE to *end*--><g class="link" data-entity-1="ent0002" data-entity-2="ent0007" data-link-type="dependency" data-source-line="20" id="lnk9"><path d="M243.16,367.9369 C246.24,383.6869 252.73,402.9469 266.38,414.4769 C324.34,463.4069 362.07,421.5869 434.38,444.4769 C445.62,448.0369 453.3446,451.6507 461.4746,455.9707" fill="none" id="INACTIVE-to-*end*" style="stroke:#1F4E79;stroke-width:1;"/><polygon fill="#1F4E79" points="465.89,458.3169,459.8193,450.5615,461.4746,455.9707,456.0654,457.6261,465.89,458.3169" style="stroke:#1F4E79;stroke-width:1;stroke-linejoin:miter;stroke-miterlimit:10;"/><text fill="#000000" font-family="sans-serif" font-size="13" lengthAdjust="spacing" textLength="195.5649" x="267.38" y="410.5438">X&#243;a (ch&#7881; vai tr&#242; c&#243; quy&#7873;n x&#243;a)</text></g><?plantuml-src bLDDQnDH5Ds_Nt58DwqmabHhjK8XBHdIYkt28GYcY-bad1cIl5SdBz4YWgKB4JS6t8X82LrqKGgrxIgFqiKB_e_dB_7EPD8wRKLSlljnphdtt2SZsV8n-cnKFuByUMpKFW-mkhw4N--_eAPFw3Ng6_MTih4P3kWfGps840fwoJJtbGUCTPeHtt9ZjusETAMFjmnOShrc48ikRooBbeWnPS_P3sqxoOYuuSTPj6JVhym_egWjkCnYHRiqFrjcx_x0BSUnU9rlOMEkmZF78ibMiPIgBYyxAxLAdLTp4WjmErdgUjjishQoDcbS2umwf4d3cm2J8iPUtDc0PIrca5Y04qPcU27HCiEZBQoAJRID-XRL-RHTAJjMrQbLhUAz1rPnReQnh2i1c40In5EVTsc_he3K0m-BADJq6GXNVUWYrATkuJQqEYUz0-9LdxmGNaYYjo6D-d7fpYL5Jl1DjYVwY136O_-5QjGVxT9gcley6PGE8KVBSfCbArh0SzADQSghZ-YvoHtf4tZw5A-wsqRjSBoXWfcynl_gP8mBidDJI2dQ42-lJ49gWr5xruxtTeFHCyD3dX98ujobUFeXF9hsQYy4Eban5HrG-HaF7gENcEIXb_SBO_7_yESkyta3oH3iDm00?></g></svg>